<?xml version="1.0" encoding="utf-8"?>
<svg viewBox="0 0 495 170" shape-rendering="geometricPrecision" text-rendering="geometricPrecision" xmlns="http://www.w3.org/2000/svg">
  <g transform="matrix(1, 0, 0, 1, -120.00878143310547, -198.171875)">
    <g transform="translate(0-95)">
      <g transform="translate(118.036125 394.428101)">
        <g>
          <path d="M37.753906,-0.28125v-12.117188c-1.21875.285157-2.628906.378907-3.378906.378907-5.542969,0-8.734375-2.066407-8.734375-7.984375v-17.46875h12.394531v-12.679688h-12.394531v-15.683594h-14.464844v15.683594h-9.203125v12.679688h9.015625v19.253906c0,11.457031,6.574219,18.875,19.910157,18.875c2.253906,0,4.320312-.1875,6.855468-.9375Zm0,0" style="fill: rgb(253, 253, 253);"/>
        </g>
      </g>
    </g>
    <g transform="translate(0-95)">
      <g transform="translate(151.652115 394.428101)">
        <g>
          <path d="M38.503906,-35.875v-14.464844c-.5625-.1875-1.875-.375-2.910156-.375-7.042969,0-12.207031,3.945313-14.179688,8.265625h-.09375v-7.703125h-14.558593v50.152344h14.652343v-21.226562c0-8.261719,3.566407-14.929688,13.617188-14.929688c1.3125,0,2.347656.09375,3.472656.28125Zm0,0" style="fill: rgb(255, 255, 255);"/>
        </g>
      </g>
    </g>
    <g transform="translate(0-95)">
      <g transform="translate(182.920547 394.428101)">
        <g>
          <path d="M20.847656,0.9375c5.449219,0,11.273438-1.875,15.027344-7.230469l.1875.09375v6.199219h13.523438v-31.085938c0-13.523437-9.015626-20.191406-21.785157-20.191406-11.367187,0-18.972656,4.507813-23.011719,11.925782l11.175782,6.667968c2.441406-4.414062,5.917968-6.761718,11.175781-6.761718c5.542969,0,8.078125,3.003906,8.078125,6.199218c0,2.066406-1.222656,3.664063-3.945312,3.664063h-4.976563c-10.144531,0-22.351563,3.003906-22.351563,15.402343v.1875c0,9.296876,7.886719,14.929688,16.902344,14.929688Zm4.226563-10.703125c-3.472657,0-6.386719-1.503906-6.386719-5.074219c0-3.945312,3.664062-5.726562,7.609375-5.726562h8.828125v1.125c0,5.261718-3.570312,9.675781-10.050781,9.675781Zm0,0" style="fill: rgb(255, 255, 255);"/>
        </g>
      </g>
    </g>
    <g transform="translate(0-95)">
      <g transform="translate(230.152588 394.428101)">
        <g>
          <path d="M30.710938,1.128906c10.800781,0,20.097656-4.980468,24.136718-15.59375l-12.960937-5.351562c-1.597657,3.757812-4.789063,7.417968-11.082031,7.417968-7.230469,0-12.019532-5.351562-12.019532-12.769531c0-7.984375,5.539063-12.679687,12.019532-12.679687c6.292968,0,9.109374,3.566406,10.800781,7.417968l12.867187-5.351562c-3.289062-10.144531-12.867187-15.496094-23.667968-15.496094-15.027344,0-27.046876,11.457032-27.046876,26.296875c0,14.929688,11.175782,26.109375,26.953126,26.109375Zm0,0" style="fill: rgb(255, 255, 255);"/>
        </g>
      </g>
    </g>
    <g transform="translate(0-95)">
      <g transform="translate(279.262665 394.428101)">
        <g>
          <path d="M21.414062,-23.761719h.375L39.539062,0h18.5L37.285156,-27.046875l20.191406-23.105469h-18.6875l-17.375,19.722656v-46.113281h-14.652343v76.542969h14.652343v-23.761719Zm0,0" style="fill: rgb(255, 255, 255);"/>
        </g>
      </g>
    </g>
    <g transform="translate(0-95)">
      <g transform="translate(343.677582 394.428101)">
        <g transform="translate(0 0.000001)">
          <path d="M21.320312,-43.953125v-6.199219h-14.558593v74.945313h14.652343v-30.335938h.1875C26.296875,0.1875,32.871094,0.9375,36.441406,0.9375c14.554688,0,24.230469-13.050781,24.230469-26.105469c0-12.679687-9.113281-25.921875-23.855469-25.921875-3.476562,0-10.519531.65625-15.308594,7.136719h-.1875Zm-.28125,18.785156c0-7.515625,5.539063-12.679687,12.300782-12.679687c6.949218,0,12.492187,5.164062,12.492187,12.679687c0,7.605469-5.542969,12.863281-12.398437,12.863281s-12.394532-5.257812-12.394532-12.863281Zm0,0" transform="translate(0 0.000001)" style="fill: rgb(255, 255, 255);"/>
        </g>
      </g>
    </g>
    <g transform="translate(0-95)">
      <g transform="translate(399.454865 394.428101)">
        <g>
          <path d="M38.503906,-35.875v-14.464844c-.5625-.1875-1.875-.375-2.910156-.375-7.042969,0-12.207031,3.945313-14.179688,8.265625h-.09375v-7.703125h-14.558593v50.152344h14.652343v-21.226562c0-8.261719,3.566407-14.929688,13.617188-14.929688c1.3125,0,2.347656.09375,3.472656.28125Zm0,0" style="fill: rgb(255, 255, 255);"/>
        </g>
      </g>
    </g>
    <g transform="translate(0-95)">
      <g transform="translate(430.723297 394.428101)">
        <g>
          <path d="M3.664062,-24.980469c0,15.121094,12.113282,26.109375,27.328126,26.109375c15.121093,0,27.421874-11.273437,27.421874-26.390625c0-14.933593-12.113281-26.015625-27.234374-26.015625-15.214844,0-27.515626,11.363282-27.515626,26.296875Zm15.023438-.1875c0-7.515625,5.449219-12.773437,12.304688-12.773437s12.398437,5.257812,12.398437,12.773437c0,7.605469-5.449219,12.863281-12.304687,12.863281s-12.398438-5.257812-12.398438-12.863281Zm0,0" style="fill: rgb(255, 255, 255);"/>
        </g>
      </g>
    </g>
    <g transform="translate(0-95)">
      <g transform="translate(382.359741 420.439178)">
        <g>
          <path d="M11.222656,-9.019531c0-2.8125-2.085937-4.253907-4.746094-4.253907h-4.933593v13.273438h2.746093v-4.679688h2.085938c2.78125,0,4.847656-1.40625,4.847656-4.339843Zm-2.761718.066406c0,1.238281-1.121094,1.714844-2.203126,1.714844h-1.96875v-3.441407h1.949219c1.136719,0,2.222657.441407,2.222657,1.726563Zm0,0" style="fill: rgb(255, 255, 255);"/>
        </g>
      </g>
    </g>
    <g transform="translate(0-95)">
      <g transform="translate(396.906219 420.439178)">
        <g>
          <path d="M11.75,0l-3-5.1875c1.796875-.644531,2.726562-1.984375,2.726562-3.882812c0-2.8125-2.117187-4.203126-4.695312-4.203126h-5.238281v13.273438h2.746093v-4.765625h1.660157L8.699219,0L11.75,0ZM6.578125,-7.308594h-2.289063v-3.371094h2.273438c1.03125,0,2.136719.390626,2.136719,1.660157c0,1.253906-1.105469,1.710937-2.121094,1.710937Zm0,0" style="fill: rgb(255, 255, 255);"/>
        </g>
      </g>
    </g>
    <g transform="translate(0-95)">
      <g transform="translate(412.113892 420.439178)">
        <g>
          <path d="M0.730469,-6.628906c0,3.832031,3.050781,6.832031,6.863281,6.832031c3.816406,0,6.917969-3.035156,6.917969-6.898437c0-3.816407-3.035157-6.78125-6.847657-6.78125-3.816406,0-6.933593,3.03125-6.933593,6.847656Zm2.8125-.015625c0-2.289063,1.796875-4.171875,4.085937-4.171875s4.085938,1.882812,4.085938,4.171875-1.796875,4.1875-4.085938,4.1875-4.085937-1.898438-4.085937-4.1875Zm0,0" style="fill: rgb(255, 255, 255);"/>
        </g>
      </g>
    </g>
    <g transform="translate(0-95)">
      <g transform="translate(430.16983 420.439178)">
        <g>
          <path d="M9.105469,-4.035156v-9.238282h-2.746094v9.035157c0,1.152343-.644531,1.78125-1.664063,1.78125-.796874,0-1.472656-.460938-1.882812-1.511719L0.492188,-2.679688c.78125,1.917969,2.269531,2.847657,4.253906,2.847657c2.375,0,4.359375-1.441407,4.359375-4.203125Zm0,0" style="fill: rgb(255, 255, 255);"/>
        </g>
      </g>
    </g>
    <g transform="translate(0-95)">
      <g transform="translate(443.52951 420.439178)">
        <g>
          <path d="M1.542969,-13.273438v13.273438h8.730469v-2.558594h-6.019532v-2.867187h5.359375v-2.578125h-5.359375v-2.695313h5.984375v-2.574219h-8.695312Zm0,0" style="fill: rgb(255, 255, 255);"/>
        </g>
      </g>
    </g>
    <g transform="translate(0-95)">
      <g transform="translate(457.58432 420.439178)">
        <g>
          <path d="M0.730469,-6.628906c0,3.867187,2.964843,6.816406,6.832031,6.816406c2.609375,0,5.203125-1.441406,6.121094-3.953125L11.15625,-4.933594c-.578125,1.441406-1.898438,2.457032-3.5625,2.457032-2.355469,0-4.015625-1.878907-4.015625-4.1875c0-2.269532,1.710937-4.136719,4.015625-4.136719c1.664062,0,2.96875.933593,3.527344,2.390625L13.632812,-9.5625c-.902343-2.492188-3.410156-3.914062-6.019531-3.914062-3.796875,0-6.882812,3.015624-6.882812,6.847656Zm0,0" style="fill: rgb(255, 255, 255);"/>
        </g>
      </g>
    </g>
    <g transform="translate(0-95)">
      <g transform="translate(474.504333 420.439178)">
        <g>
          <path d="M4.339844,0h2.730468v-10.613281h3.984376v-2.660157h-10.699219v2.660157h3.984375v10.613281Zm0,0" style="fill: rgb(255, 255, 255);"/>
        </g>
      </g>
    </g>
    <g transform="translate(0-95)">
      <g transform="translate(191.916153 443.044281)">
        <g>
          <path d="M13.460938,-8.765625h.015624v8.765625h2.714844v-13.273438h-3.644531L8.851562,-4.375l-3.765624-8.898438h-3.542969v13.273438h2.695312v-8.699219h.015625L7.933594,0h1.832031l3.695313-8.765625Zm0,0" style="fill: rgb(255, 255, 255);"/>
        </g>
      </g>
    </g>
    <g transform="translate(0-95)">
      <g transform="translate(212.464325 443.044281)">
        <g>
          <path d="M2.746094,0l.984375-2.679688h5.882812l1,2.679688h2.832031L8.359375,-13.273438h-3.308594L-0.015625,0h2.761719Zm3.933594-10.613281l2,5.390625h-4l2-5.390625Zm0,0" style="fill: rgb(255, 255, 255);"/>
        </g>
      </g>
    </g>
    <g transform="translate(0-95)">
      <g transform="translate(228.706192 443.044281)">
        <g>
          <path d="M4.253906,-9.15625L10.359375,0h2.796875v-13.273438h-2.710938v8.660157l-5.765624-8.660157h-3.136719v13.273438h2.710937v-9.15625Zm0,0" style="fill: rgb(255, 255, 255);"/>
        </g>
      </g>
    </g>
    <g transform="translate(0-95)">
      <g transform="translate(246.236557 443.044281)">
        <g>
          <path d="M2.746094,0l.984375-2.679688h5.882812l1,2.679688h2.832031L8.359375,-13.273438h-3.308594L-0.015625,0h2.761719Zm3.933594-10.613281l2,5.390625h-4l2-5.390625Zm0,0" style="fill: rgb(255, 255, 255);"/>
        </g>
      </g>
    </g>
    <g transform="translate(0-95)">
      <g transform="translate(262.478424 443.044281)">
        <g>
          <path d="M3.527344,-6.644531c0-2.410157,1.847656-4.238281,4.085937-4.238281c2.136719,0,3.167969,1.335937,3.558594,2.339843l2.425781-1.1875c-.59375-1.664062-2.5625-3.746093-5.953125-3.746093-3.777343,0-6.914062,2.980468-6.914062,6.847656c0,3.78125,2.777343,6.832031,6.882812,6.832031c3.238281,0,6.289063-2.167969,6.289063-6.304687v-1.035157h-6.902344v2.492188h4.035156c-.320312,1.304687-1.625,2.238281-3.421875,2.238281-2.410156,0-4.085937-1.933594-4.085937-4.238281Zm0,0" style="fill: rgb(255, 255, 255);"/>
        </g>
      </g>
    </g>
    <g transform="translate(0-95)">
      <g transform="translate(279.822296 443.044281)">
        <g>
          <path d="M1.542969,-13.273438v13.273438h8.730469v-2.558594h-6.019532v-2.867187h5.359375v-2.578125h-5.359375v-2.695313h5.984375v-2.574219h-8.695312Zm0,0" style="fill: rgb(255, 255, 255);"/>
        </g>
      </g>
    </g>
    <g transform="translate(0-95)">
      <g transform="translate(293.877106 443.044281)">
        <g>
          <path d="M13.460938,-8.765625h.015624v8.765625h2.714844v-13.273438h-3.644531L8.851562,-4.375l-3.765624-8.898438h-3.542969v13.273438h2.695312v-8.699219h.015625L7.933594,0h1.832031l3.695313-8.765625Zm0,0" style="fill: rgb(255, 255, 255);"/>
        </g>
      </g>
    </g>
    <g transform="translate(0-95)">
      <g transform="translate(314.425262 443.044281)">
        <g>
          <path d="M1.542969,-13.273438v13.273438h8.730469v-2.558594h-6.019532v-2.867187h5.359375v-2.578125h-5.359375v-2.695313h5.984375v-2.574219h-8.695312Zm0,0" style="fill: rgb(255, 255, 255);"/>
        </g>
      </g>
    </g>
    <g transform="translate(0-95)">
      <g transform="translate(328.480072 443.044281)">
        <g>
          <path d="M4.253906,-9.15625L10.359375,0h2.796875v-13.273438h-2.710938v8.660157l-5.765624-8.660157h-3.136719v13.273438h2.710937v-9.15625Zm0,0" style="fill: rgb(255, 255, 255);"/>
        </g>
      </g>
    </g>
    <g transform="translate(0-95)">
      <g transform="translate(346.010437 443.044281)">
        <g>
          <path d="M4.339844,0h2.730468v-10.613281h3.984376v-2.660157h-10.699219v2.660157h3.984375v10.613281Zm0,0" style="fill: rgb(255, 255, 255);"/>
        </g>
      </g>
    </g>
    <g transform="translate(0-95)">
      <g transform="translate(367.304535 443.044281)">
        <g>
          <path d="M4.339844,0h2.730468v-10.613281h3.984376v-2.660157h-10.699219v2.660157h3.984375v10.613281Zm0,0" style="fill: rgb(255, 255, 255);"/>
        </g>
      </g>
    </g>
    <g transform="translate(0-95)">
      <g transform="translate(381.52887 443.044281)">
        <g>
          <path d="M11.75,0l-3-5.1875c1.796875-.644531,2.726562-1.984375,2.726562-3.882812c0-2.8125-2.117187-4.203126-4.695312-4.203126h-5.238281v13.273438h2.746093v-4.765625h1.660157L8.699219,0L11.75,0ZM6.578125,-7.308594h-2.289063v-3.371094h2.273438c1.03125,0,2.136719.390626,2.136719,1.660157c0,1.253906-1.105469,1.710937-2.121094,1.710937Zm0,0" style="fill: rgb(255, 255, 255);"/>
        </g>
      </g>
    </g>
    <g transform="translate(0-95)">
      <g transform="translate(396.736542 443.044281)">
        <g>
          <path d="M2.746094,0l.984375-2.679688h5.882812l1,2.679688h2.832031L8.359375,-13.273438h-3.308594L-0.015625,0h2.761719Zm3.933594-10.613281l2,5.390625h-4l2-5.390625Zm0,0" style="fill: rgb(255, 255, 255);"/>
        </g>
      </g>
    </g>
    <g transform="translate(0-95)">
      <g transform="translate(412.978424 443.044281)">
        <g>
          <path d="M0.730469,-6.628906c0,3.867187,2.964843,6.816406,6.832031,6.816406c2.609375,0,5.203125-1.441406,6.121094-3.953125L11.15625,-4.933594c-.578125,1.441406-1.898438,2.457032-3.5625,2.457032-2.355469,0-4.015625-1.878907-4.015625-4.1875c0-2.269532,1.710937-4.136719,4.015625-4.136719c1.664062,0,2.96875.933593,3.527344,2.390625L13.632812,-9.5625c-.902343-2.492188-3.410156-3.914062-6.019531-3.914062-3.796875,0-6.882812,3.015624-6.882812,6.847656Zm0,0" style="fill: rgb(255, 255, 255);"/>
        </g>
      </g>
    </g>
    <g transform="translate(0-95)">
      <g transform="translate(429.898438 443.044281)">
        <g>
          <path d="M4.273438,0v-6.308594L9.054688,0h3.542968L7.1875,-6.933594l5.070312-6.339844h-3.425781l-4.558593,5.78125v-5.78125h-2.730469v13.273438h2.730469Zm0,0" style="fill: rgb(255, 255, 255);"/>
        </g>
      </g>
    </g>
    <g transform="translate(0-95)">
      <g transform="translate(445.190887 443.044281)">
        <g>
          <path d="M4.289062,-13.273438h-2.746093v13.273438h2.746093v-13.273438Zm0,0" style="fill: rgb(255, 255, 255);"/>
        </g>
      </g>
    </g>
    <g transform="translate(0-95)">
      <g transform="translate(453.85434 443.044281)">
        <g>
          <path d="M4.253906,-9.15625L10.359375,0h2.796875v-13.273438h-2.710938v8.660157l-5.765624-8.660157h-3.136719v13.273438h2.710937v-9.15625Zm0,0" style="fill: rgb(255, 255, 255);"/>
        </g>
      </g>
    </g>
    <g transform="translate(0-95)">
      <g transform="translate(471.384735 443.044281)">
        <g>
          <path d="M3.527344,-6.644531c0-2.410157,1.847656-4.238281,4.085937-4.238281c2.136719,0,3.167969,1.335937,3.558594,2.339843l2.425781-1.1875c-.59375-1.664062-2.5625-3.746093-5.953125-3.746093-3.777343,0-6.914062,2.980468-6.914062,6.847656c0,3.78125,2.777343,6.832031,6.882812,6.832031c3.238281,0,6.289063-2.167969,6.289063-6.304687v-1.035157h-6.902344v2.492188h4.035156c-.320312,1.304687-1.625,2.238281-3.421875,2.238281-2.410156,0-4.085937-1.933594-4.085937-4.238281Zm0,0" style="fill: rgb(255, 255, 255);"/>
        </g>
      </g>
    </g>
    <g transform="translate(0-95)" clip-path="url(#eUVYsmDjnTd138)">
      <g>
        <path d="M508.238281,293.171875c-3.519531,0-5.625,2.757813-4.679687,6.128906l27.140625,96.589844c.949219,3.371094,2.550781,3.390625,3.5625.039063l29.308593-96.667969c1.015626-3.34375-1.03125-6.089844-4.546874-6.089844h-18.296876c-3.519531,0-9.277343,0-12.796874,0h-19.691407Zm0,0" fill="#e14d2a"/>
      </g>
      <clipPath id="eUVYsmDjnTd138">
        <path d="M503,293.171875h61L564,399h-61v-105.828125Zm0,0" transform="translate(0 0.000001)"/>
      </clipPath>
    </g>
    <path d="M571.027344,319.738281c-2.371094-1.484375-4.964844-.519531-5.773438,2.148438l-23.109375,76.542969c-.804687,2.667968.269531,3.359374,2.390625,1.53125l61.144532-52.675782c2.117187-1.824218,1.910156-4.539062-.453126-6.023437l-12.324218-7.753907c-2.371094-1.492187-6.246094-3.933593-8.613282-5.421874l-13.261718-8.347657Zm0,0" transform="translate(0-95)" fill="#e14d2a"/>
    <path d="M599.90625,368.816406c-.886719-1.960937-2.964844-2.4375-4.636719-1.0625l-47.679687,39.4375c-1.667969,1.371094-1.269532,2.273438.875,1.996094l61.921875-7.960938c2.144531-.273437,3.179687-2.101562,2.296875-4.0625l-4.605469-10.214843c-.886719-1.960938-2.332031-5.175781-3.21875-7.136719l-4.953125-10.996094Zm0,0" transform="translate(0-95)" fill="#e14d2a"/>
    <path d="M598.878906,412.828125c.257813-1.667969-.914062-2.863281-2.597656-2.664063l-48.371094,5.777344c-1.679687.203125-1.8125.964844-.273437,1.695313l44.25,21.019531c1.535156.730469,2.992187-.042969,3.257812-1.710938l1.34375-8.6875c.261719-1.667968.683594-4.402343.945313-6.074218l1.445312-9.355469Zm0,0" transform="translate(0-95)" fill="#e14d2a"/>
    <path d="M579.21875,441.71875c.921875-1.007812.675781-2.335938-.546875-2.949219l-35.152344-17.605469c-1.230469-.613281-1.652343-.152343-.953125,1.019532L562.910156,456c.703125,1.167969,2.035156,1.304688,2.960938.292969l4.808594-5.257813c.921874-1.003906,2.4375-2.65625,3.359374-3.667968l5.179688-5.648438Zm0,0" transform="translate(0-95)" fill="#e14d2a"/>
    <g transform="translate(0-95)" clip-path="url(#eUVYsmDjnTd147)">
      <g>
        <path d="M551.78125,456.921875c1.078125-.222656,1.546875-1.207031,1.03125-2.179687l-14.636719-27.980469c-.515625-.972657-1.007812-.878907-1.105469.21875l-2.71875,31.636719c-.09375,1.09375.714844,1.804687,1.792969,1.582031l5.636719-1.179688c1.082031-.230469,2.851562-.597656,3.929688-.824219l6.070312-1.273437Zm0,0" fill="#e14d2a"/>
      </g>
      <clipPath id="eUVYsmDjnTd147">
        <path d="M534,426h20v34.421875h-20L534,426Zm0,0" transform="translate(0 0.000001)"/>
      </clipPath>
    </g>
    <path d="M528.300781,455.582031c.921875.277344,1.691407-.28125,1.707031-1.234375l.523438-27.445312c.019531-.957032-.402344-1.085938-.933594-.292969l-15.324218,23.054687c-.53125.796876-.207032,1.671876.714843,1.949219l4.792969,1.433594c.925781.269531,2.433594.71875,3.355469,1l5.164062,1.535156Zm0,0" transform="translate(0-95)" fill="#e14d2a"/>
    <path d="M509.800781,437.15625c.390625.648438,1.136719.726562,1.65625.1875l15.035157-15.632812c.523437-.546876.347656-.84375-.386719-.664063l-21.253907,5.226563c-.734374.179687-1.019531.859374-.636718,1.507812l2.015625,3.375c.386719.648438,1.015625,1.710938,1.40625,2.359375l2.164062,3.640625Zm0,0" transform="translate(0-95)" fill="#e14d2a"/>
    <path d="M507.601562,414.324219c-.097656.570312.292969.984375.867188.925781l16.453125-1.671875c.578125-.058594.625-.320313.109375-.574219l-14.898438-7.40625c-.519531-.253906-1.023437,0-1.117187.566406l-.507813,2.9375c-.097656.5625-.359374,2.058594-.359374,2.058594l-.546876,3.164063Zm0,0" transform="translate(0-95)" fill="#e14d2a"/>
    <path d="M512.699219,399.949219c-.230469.410156-.046875.828125.410156.9375l13.042969,3.121093c.453125.101563.558594-.082031.238281-.414062l-9.402344-9.648438c-.324219-.332031-.78125-.269531-1.007812.128907l-1.183594,2.125c-.222656.402343-.597656,1.070312-.828125,1.476562l-1.269531,2.273438Zm0,0" transform="translate(0-95)" fill="#e14d2a"/>
  </g>
</svg>