<?xml version="1.0" encoding="utf-8"?>
<!-- Generator: Adobe Illustrator 27.2.0, SVG Export Plug-In . SVG Version: 6.00 Build 0)  -->
<svg version="1.1" id="Layer_1" xmlns="http://www.w3.org/2000/svg" xmlns:xlink="http://www.w3.org/1999/xlink" x="0px" y="0px"
	 viewBox="0 0 512 512" style="enable-background:new 0 0 512 512;" xml:space="preserve">
<style type="text/css">
	.st0{clip-path:url(#SVGID_00000052062122502507152090000005563305047126315920_);}
	.st1{fill:#ED1C24;}
	.st2{clip-path:url(#SVGID_00000008139636429652951900000012132650621723818919_);}
	.st3{clip-path:url(#SVGID_00000137127797311135063270000009115378391168233872_);}
	.st4{clip-path:url(#SVGID_00000074416762208742942460000002480390304715632022_);}
</style>
<g>
	<g>
		<defs>
			<rect id="SVGID_1_" x="126.8" y="45.4" width="153.2" height="265.8"/>
		</defs>
		<clipPath id="SVGID_00000098928141094041959570000011399612687277801659_">
			<use xlink:href="#SVGID_1_"  style="overflow:visible;"/>
		</clipPath>
		<g style="clip-path:url(#SVGID_00000098928141094041959570000011399612687277801659_);">
			<path class="st1" d="M139.9,45.4c-8.8,0-14.1,6.9-11.8,15.4l68.2,242.6c2.4,8.5,6.4,8.5,8.9,0.1l73.6-242.8
				c2.6-8.4-2.6-15.3-11.4-15.3h-46c-8.8,0-23.3,0-32.1,0H139.9z"/>
		</g>
	</g>
	<path class="st1" d="M297.6,112.2c-6-3.7-12.5-1.3-14.5,5.4l-58,192.3c-2,6.7,0.7,8.4,6,3.8l153.6-132.3c5.3-4.6,4.8-11.4-1.1-15.1
		l-31-19.5c-6-3.7-15.7-9.9-21.6-13.6L297.6,112.2z"/>
	<path class="st1" d="M370.2,235.4c-2.2-4.9-7.4-6.1-11.6-2.7l-119.8,99.1c-4.2,3.4-3.2,5.7,2.2,5l155.5-20c5.4-0.7,8-5.3,5.8-10.2
		L390.7,281c-2.2-4.9-5.9-13-8.1-17.9L370.2,235.4z"/>
	<path class="st1" d="M367.6,346c0.6-4.2-2.3-7.2-6.5-6.7l-121.5,14.5c-4.2,0.5-4.6,2.4-0.7,4.3L350,410.9c3.9,1.8,7.5-0.1,8.2-4.3
		l3.4-21.8c0.7-4.2,1.7-11.1,2.4-15.3L367.6,346z"/>
	<path class="st1" d="M318.2,418.6c2.3-2.5,1.7-5.9-1.4-7.4l-88.3-44.2c-3.1-1.5-4.2-0.4-2.4,2.6l51.1,84.9c1.8,2.9,5.1,3.3,7.4,0.7
		l12.1-13.2c2.3-2.5,6.1-6.7,8.4-9.2L318.2,418.6z"/>
	<g>
		<defs>
			<rect id="SVGID_00000110457163842604642460000012625261540903040441_" x="204.6" y="379.1" width="50.2" height="86.5"/>
		</defs>
		<clipPath id="SVGID_00000137127341723357685810000007815553493456715409_">
			<use xlink:href="#SVGID_00000110457163842604642460000012625261540903040441_"  style="overflow:visible;"/>
		</clipPath>
		<g style="clip-path:url(#SVGID_00000137127341723357685810000007815553493456715409_);">
			<path class="st1" d="M249.3,456.7c2.7-0.6,3.9-3,2.6-5.5L215.1,381c-1.3-2.4-2.5-2.2-2.8,0.5l-6.8,79.5c-0.2,2.7,1.8,4.5,4.5,4
				l14.2-3c2.7-0.6,7.2-1.5,9.9-2.1L249.3,456.7z"/>
		</g>
	</g>
	<path class="st1" d="M190.3,453.4c2.3,0.7,4.2-0.7,4.3-3.1l1.3-68.9c0-2.4-1-2.7-2.3-0.7l-38.5,57.9c-1.3,2-0.5,4.2,1.8,4.9l12,3.6
		c2.3,0.7,6.1,1.8,8.4,2.5L190.3,453.4z"/>
	<path class="st1" d="M143.8,407.1c1,1.6,2.9,1.8,4.2,0.5l37.8-39.3c1.3-1.4,0.9-2.1-1-1.7l-53.4,13.1c-1.8,0.5-2.6,2.2-1.6,3.8
		l5.1,8.5c1,1.6,2.6,4.3,3.5,5.9L143.8,407.1z"/>
	<path class="st1" d="M138.3,349.7c-0.2,1.4,0.7,2.5,2.2,2.3l41.3-4.2c1.5-0.1,1.6-0.8,0.3-1.4l-37.4-18.6c-1.3-0.6-2.6,0-2.8,1.4
		l-1.3,7.4c-0.2,1.4-0.7,3.7-0.9,5.2L138.3,349.7z"/>
	<path class="st1" d="M151.1,313.6c-0.6,1-0.1,2.1,1,2.4l32.8,7.8c1.1,0.3,1.4-0.2,0.6-1l-23.6-24.2c-0.8-0.8-2-0.7-2.5,0.3l-3,5.3
		c-0.6,1-1.5,2.7-2.1,3.7L151.1,313.6z"/>
</g>
</svg>
